<svg width="26" height="27" viewBox="0 0 26 27" fill="none" xmlns="http://www.w3.org/2000/svg">
<path d="M18.417 2.25H7.58366C4.59212 2.25 2.16699 4.7684 2.16699 7.875V19.125C2.16699 22.2316 4.59212 24.75 7.58366 24.75H18.417C21.4085 24.75 23.8337 22.2316 23.8337 19.125V7.875C23.8337 4.7684 21.4085 2.25 18.417 2.25Z" stroke="#858585" stroke-linecap="round" stroke-linejoin="round"/>
<path d="M17.3337 12.7913C17.4674 13.7276 17.3134 14.6838 16.8936 15.524C16.4738 16.3641 15.8096 17.0454 14.9954 17.471C14.1813 17.8965 13.2587 18.0446 12.3588 17.8943C11.4589 17.7439 10.6276 17.3027 9.98308 16.6334C9.33858 15.9641 8.91371 15.1008 8.76891 14.1663C8.6241 13.2318 8.76674 12.2737 9.17652 11.4283C9.5863 10.5828 10.2424 9.89305 11.0514 9.45712C11.8604 9.02118 12.7812 8.86126 13.6828 9.0001C14.6025 9.14172 15.4539 9.58674 16.1113 10.2694C16.7687 10.9521 17.1973 11.8363 17.3337 12.7913Z" stroke="#858585" stroke-linecap="round" stroke-linejoin="round"/>
<path d="M18.958 7.3125H18.9686" stroke="#858585" stroke-linecap="round" stroke-linejoin="round"/>
</svg>
